<?xml version="1.0" standalone="no"?>
<!DOCTYPE svg PUBLIC "-//W3C//DTD SVG 20010904//EN"
 "http://www.w3.org/TR/2001/REC-SVG-20010904/DTD/svg10.dtd">
<svg version="1.0" xmlns="http://www.w3.org/2000/svg"
 width="640.000000pt" height="640.000000pt" viewBox="0 0 640.000000 640.000000"
 preserveAspectRatio="xMidYMid meet">
<metadata>
Created by potrace 1.14, written by Peter Selinger 2001-2017
</metadata>
<g transform="translate(0.000000,640.000000) scale(0.100000,-0.100000)"
fill="#000000" stroke="none">
<path d="M2950 6389 c0 -6 -4 -7 -10 -4 -5 3 -10 2 -10 -3 0 -5 -18 -8 -40 -6
-22 2 -40 0 -40 -4 0 -4 -19 -8 -43 -8 -23 -1 -60 -5 -82 -9 -22 -4 -51 -8
-65 -10 -14 -2 -25 -4 -25 -5 0 -1 -11 -3 -25 -5 -22 -3 -125 -26 -185 -42
-11 -2 -31 -6 -45 -8 -14 -1 -38 -8 -55 -14 -16 -7 -38 -13 -47 -14 -10 -1
-18 -5 -18 -10 0 -4 -3 -6 -7 -4 -5 3 -19 0 -33 -6 -14 -5 -29 -11 -35 -12 -5
-1 -26 -8 -45 -15 -19 -8 -38 -13 -42 -12 -5 1 -8 -3 -8 -10 0 -6 -3 -9 -6 -6
-3 4 -29 -4 -57 -17 -28 -13 -54 -22 -59 -19 -4 3 -8 0 -8 -5 0 -6 -6 -11 -13
-11 -38 0 -365 -171 -490 -256 -43 -30 -83 -54 -87 -54 -5 0 -13 -6 -17 -12
-4 -7 -33 -30 -63 -50 -30 -21 -70 -51 -88 -68 -18 -16 -35 -30 -38 -30 -3 0
-15 -11 -28 -25 -13 -13 -26 -22 -29 -18 -4 3 -7 1 -7 -4 0 -6 -19 -25 -42
-42 -23 -17 -38 -31 -34 -31 5 0 -7 -12 -26 -27 -19 -16 -54 -50 -79 -76 -24
-26 -69 -74 -99 -105 -31 -31 -71 -78 -89 -104 -19 -27 -39 -48 -44 -48 -6 0
-8 -3 -4 -6 5 -5 -20 -38 -65 -85 -9 -10 -14 -19 -12 -21 2 -3 -7 -15 -21 -28
-14 -13 -25 -29 -25 -37 0 -7 -5 -13 -11 -13 -5 0 -8 -4 -5 -8 3 -5 -3 -18
-12 -28 -10 -10 -21 -27 -25 -36 -3 -10 -11 -18 -17 -18 -6 0 -9 -4 -6 -9 3
-4 -3 -16 -14 -26 -11 -10 -20 -24 -20 -30 0 -7 -9 -24 -21 -39 -11 -14 -17
-26 -13 -26 4 0 0 -8 -8 -17 -20 -23 -53 -86 -50 -95 1 -5 -2 -8 -8 -8 -5 0
-10 -6 -10 -14 0 -7 -7 -19 -15 -26 -8 -7 -13 -16 -10 -20 2 -4 -5 -23 -15
-43 -11 -21 -17 -37 -13 -37 5 0 4 -4 -2 -8 -13 -9 -47 -80 -52 -107 -2 -11
-8 -21 -13 -23 -6 -2 -10 -11 -10 -20 0 -22 -31 -102 -39 -102 -4 0 -7 -8 -8
-17 -1 -10 -3 -25 -6 -33 -2 -8 -7 -28 -12 -45 -4 -16 -10 -34 -14 -40 -3 -5
-6 -12 -6 -15 -4 -26 -19 -77 -25 -85 -4 -5 -8 -18 -9 -27 0 -10 -2 -26 -2
-35 -1 -10 -6 -24 -12 -30 -5 -7 -7 -13 -4 -13 3 0 2 -14 -3 -32 -10 -31 -22
-102 -23 -125 0 -7 -5 -13 -10 -13 -5 0 -4 -6 2 -13 6 -8 8 -17 4 -21 -9 -8
-12 -29 -15 -88 -1 -26 -6 -44 -12 -41 -5 3 -6 1 -2 -5 3 -6 2 -13 -4 -17 -11
-7 -15 -691 -4 -719 3 -9 11 -13 16 -10 6 4 6 0 0 -13 -6 -10 -7 -25 -2 -33 4
-8 10 -37 14 -65 5 -52 9 -75 21 -135 4 -19 9 -44 10 -55 2 -11 4 -22 5 -25 1
-3 3 -9 5 -15 1 -5 3 -12 4 -15 3 -7 9 -29 16 -65 3 -16 12 -42 20 -58 9 -18
10 -25 2 -20 -9 5 -9 3 0 -8 6 -8 12 -18 13 -24 1 -5 6 -20 11 -33 5 -13 9
-29 9 -37 0 -8 5 -17 10 -20 6 -4 8 -10 5 -15 -3 -5 -1 -11 5 -15 6 -4 8 -11
4 -16 -3 -5 -1 -15 4 -22 7 -9 30 -68 37 -97 1 -3 8 -18 15 -35 7 -16 14 -32
15 -35 3 -9 22 -53 46 -105 12 -27 22 -53 21 -57 -1 -5 3 -8 8 -8 6 0 10 -6
10 -14 0 -8 15 -41 34 -74 19 -33 32 -63 28 -66 -3 -3 0 -6 6 -6 7 0 22 -20
34 -45 12 -25 26 -45 30 -45 4 0 8 -7 8 -15 0 -8 4 -15 10 -15 5 0 12 -11 16
-25 3 -14 10 -25 16 -25 5 0 7 -4 4 -9 -3 -5 1 -11 9 -15 8 -3 15 -12 15 -21
0 -8 4 -15 9 -15 6 0 22 -23 37 -50 15 -28 31 -50 35 -50 4 0 10 -8 13 -17 4
-10 19 -32 34 -49 15 -17 38 -46 52 -65 14 -18 40 -48 58 -67 17 -18 32 -36
32 -38 0 -11 219 -224 230 -224 6 0 8 -4 5 -10 -3 -5 -3 -10 2 -10 4 0 29 -19
55 -43 49 -45 73 -64 153 -124 28 -21 52 -41 53 -45 2 -5 10 -8 18 -8 8 0 14
-4 14 -10 0 -5 7 -10 15 -10 8 0 15 -4 15 -10 0 -5 7 -10 15 -10 8 0 15 -4 15
-8 0 -5 24 -22 53 -37 28 -16 57 -34 64 -39 35 -31 43 -36 58 -36 8 0 15 -3
15 -8 0 -4 25 -18 55 -32 30 -14 55 -28 55 -32 0 -5 9 -8 20 -8 11 0 20 -4 20
-9 0 -9 58 -35 73 -32 4 0 7 -3 7 -7 0 -9 110 -58 123 -54 4 1 7 -3 7 -8 0 -6
6 -10 14 -10 7 0 26 -7 42 -14 15 -8 31 -13 36 -10 4 3 8 1 8 -5 0 -7 36 -21
70 -26 3 0 11 -4 18 -8 7 -5 24 -11 39 -13 15 -3 32 -9 38 -13 8 -7 98 -35
115 -36 3 0 10 -3 15 -6 6 -4 28 -10 50 -14 22 -5 47 -10 55 -12 8 -3 25 -5
38 -6 12 0 22 -5 22 -9 0 -4 3 -7 8 -6 4 1 36 -4 72 -11 36 -6 74 -14 85 -16
11 -2 20 -4 20 -5 0 -1 21 -3 47 -5 27 -1 56 -9 65 -16 13 -11 15 -11 9 -1 -7
11 0 12 30 7 22 -4 45 -7 52 -8 6 0 12 -4 12 -9 0 -5 135 -8 300 -8 165 1 298
5 296 9 -3 5 6 7 19 5 16 -1 23 2 19 8 -5 7 4 9 25 6 17 -2 31 -2 31 1 0 3 19
6 43 6 23 0 46 2 52 4 5 3 25 6 45 8 19 2 42 6 50 10 15 6 22 7 90 16 19 3 49
11 65 17 17 7 41 14 55 16 14 3 36 8 50 13 14 5 86 28 160 52 74 24 137 47
138 51 2 5 9 8 17 8 7 0 39 12 71 27 33 14 64 27 69 29 34 7 41 11 59 26 10
10 23 15 27 12 4 -2 10 0 14 6 4 6 11 8 16 5 5 -4 9 -2 9 4 0 5 28 24 63 41
122 63 150 79 158 92 5 7 9 10 9 5 0 -6 75 38 90 53 7 7 119 83 144 97 12 7
28 21 37 32 9 11 19 17 23 14 3 -3 8 2 12 11 3 9 10 16 15 16 5 0 17 8 27 18
10 9 35 31 56 47 21 17 44 35 51 42 7 7 16 9 20 5 5 -4 5 -2 2 4 -4 7 3 19 16
27 37 25 96 85 89 91 -3 3 0 6 6 6 7 0 21 9 32 20 11 11 18 20 16 20 -2 0 23
27 56 60 34 33 59 60 55 60 -3 0 9 15 27 33 47 49 65 75 59 81 -4 3 1 6 10 6
8 0 19 9 22 20 3 11 11 20 16 20 6 0 8 4 5 8 -3 5 4 14 14 22 10 8 17 17 15
20 -3 4 7 18 20 30 14 13 25 29 25 37 0 7 4 13 8 13 4 0 21 22 37 50 16 28 33
50 37 50 4 0 8 7 8 15 0 8 9 24 20 35 11 11 20 25 20 31 0 6 9 24 21 40 11 16
17 29 12 29 -4 0 -3 4 3 8 15 10 76 122 67 122 -5 0 0 5 10 11 9 6 15 14 12
20 -4 5 -1 9 4 9 6 0 10 3 9 8 -2 9 10 40 28 74 8 14 14 33 14 42 0 9 5 16 10
16 6 0 10 8 10 18 0 9 8 31 18 47 11 17 18 38 16 48 -1 10 4 21 11 23 8 3 11
12 8 20 -3 8 -1 14 5 14 6 0 9 8 8 17 -2 10 1 25 5 33 6 13 19 43 24 60 15 48
28 98 28 108 0 6 5 12 10 12 5 0 7 6 4 14 -3 8 -3 17 1 20 3 4 7 12 8 19 3 12
13 59 19 87 2 8 4 17 6 20 1 3 3 10 4 15 1 6 7 29 14 53 12 44 19 81 27 162 2
25 6 61 8 80 2 19 9 34 14 33 17 -4 16 656 -1 676 -10 12 -9 13 3 6 13 -8 13
-7 1 8 -7 9 -10 17 -5 17 5 0 2 5 -6 10 -13 8 -13 13 -2 31 9 13 9 19 2 14 -8
-5 -11 3 -9 27 2 18 0 39 -5 46 -4 6 -5 12 -1 12 3 0 1 9 -5 20 -8 15 -8 20 2
20 10 0 10 2 1 8 -6 4 -14 21 -17 37 -2 17 -5 30 -6 30 -1 0 -4 13 -6 29 -3
16 -9 37 -14 45 -4 9 -11 37 -15 64 -4 26 -11 47 -14 47 -4 0 -7 10 -6 23 1
12 -1 29 -6 37 -4 8 -19 53 -35 100 -15 47 -32 96 -37 110 -6 14 -12 34 -14
44 -2 11 -8 25 -14 33 -6 7 -9 13 -5 13 3 0 -5 22 -18 49 -14 27 -23 51 -20
53 2 3 -2 11 -11 18 -8 7 -15 18 -15 25 0 13 -69 156 -79 165 -3 3 -7 11 -9
19 -2 8 -23 47 -48 87 -24 41 -44 76 -44 79 0 6 -39 64 -50 75 -3 3 -11 17
-18 31 -8 15 -25 38 -38 53 -14 14 -21 26 -17 26 4 0 3 4 -2 8 -6 4 -28 31
-49 61 -44 62 -44 62 -91 116 -20 21 -45 54 -58 72 -12 18 -30 36 -39 39 -10
3 -17 8 -15 12 2 9 -202 213 -261 260 -22 19 -50 41 -61 50 -52 44 -62 52 -67
52 -3 0 -11 6 -18 13 -7 6 -25 21 -40 32 -16 11 -34 26 -41 33 -8 6 -19 12
-25 12 -6 0 -13 7 -16 15 -4 8 -10 15 -15 15 -9 0 -65 36 -79 50 -3 3 -15 11
-28 17 -12 7 -32 19 -45 25 -12 7 -24 16 -27 19 -3 3 -50 30 -105 59 -55 28
-104 55 -110 58 -5 4 -12 7 -15 7 -3 1 -41 18 -84 38 -43 20 -85 37 -92 37 -7
0 -16 5 -19 11 -4 6 -14 8 -22 5 -8 -3 -11 -1 -8 4 3 5 -15 15 -40 21 -25 6
-48 15 -51 20 -3 5 -15 9 -28 9 -12 0 -26 3 -30 7 -3 4 -12 8 -19 9 -7 1 -34
9 -62 19 -27 9 -57 18 -65 20 -8 2 -16 4 -17 5 -2 2 -7 4 -13 5 -5 1 -11 3
-12 4 -2 2 -14 4 -28 7 -14 2 -43 8 -65 14 -22 6 -49 11 -60 13 -11 1 -26 6
-32 10 -7 5 -13 6 -13 3 0 -2 -26 2 -59 9 -32 8 -75 15 -95 17 -20 1 -36 5
-36 8 0 3 -19 6 -42 5 -24 0 -46 4 -50 10 -5 7 -8 6 -8 -1 0 -6 -13 -9 -30 -6
-17 2 -27 9 -23 15 4 6 1 7 -8 1 -18 -11 -40 -12 -61 -1 -11 5 -18 4 -18 -3 0
-5 -5 -10 -11 -10 -6 0 -9 6 -6 14 5 12 -29 15 -219 15 -148 0 -224 -3 -224
-10z m-2920 -2843 c0 -3 -4 -8 -10 -11 -5 -3 -10 -1 -10 4 0 6 5 11 10 11 6 0
10 -2 10 -4z"/>
</g>
</svg>
